<svg width="121" height="62" viewBox="0 0 121 62" fill="none" xmlns="http://www.w3.org/2000/svg">
<path d="M33.232 35.904C31.92 35.904 30.464 35.984 28.864 36.144C28.8 36.048 28.768 35.856 28.768 35.568C28.768 35.28 28.8 35.072 28.864 34.944C29.536 34.944 30.032 34.88 30.352 34.752C30.672 34.592 30.864 34.464 30.928 34.368C31.088 33.984 31.168 32.992 31.168 31.392V27.264C31.168 27.008 31.136 26.624 31.072 26.112C31.008 25.6 30.944 25.28 30.88 25.152C30.656 24.736 29.984 24.528 28.864 24.528C28.8 24.496 28.768 24.336 28.768 24.048C28.8 23.728 28.848 23.568 28.912 23.568C30.128 23.472 31.312 23.248 32.464 22.896C33.616 22.512 34.496 22.176 35.104 21.888C35.2 21.92 35.312 22 35.44 22.128C35.568 22.256 35.616 22.352 35.584 22.416C35.584 22.48 35.568 22.624 35.536 22.848C35.504 23.072 35.472 23.328 35.44 23.616C35.408 23.872 35.376 24.128 35.344 24.384C35.312 24.64 35.296 24.816 35.296 24.912C35.296 24.976 35.328 25.024 35.392 25.056C35.456 25.056 35.488 25.04 35.488 25.008C36.064 24.048 36.544 23.376 36.928 22.992C37.76 22.224 38.608 21.84 39.472 21.84C40.432 21.84 41.088 22.016 41.44 22.368C41.696 22.752 41.824 23.184 41.824 23.664C41.824 24.112 41.776 24.496 41.68 24.816C41.584 25.104 41.44 25.376 41.248 25.632C40.864 26.176 40.416 26.448 39.904 26.448C39.616 26.448 39.36 26.352 39.136 26.16C38.944 25.968 38.752 25.792 38.56 25.632C38.4 25.472 38.224 25.328 38.032 25.2C37.872 25.04 37.648 24.96 37.36 24.96C37.072 24.96 36.8 25.072 36.544 25.296C36.288 25.488 36.064 25.728 35.872 26.016C35.488 26.592 35.296 27.104 35.296 27.552V31.392C35.296 32.992 35.344 33.92 35.44 34.176C35.536 34.4 35.664 34.56 35.824 34.656C35.984 34.72 36.16 34.784 36.352 34.848C36.672 34.912 37.008 34.944 37.36 34.944C37.424 35.072 37.456 35.28 37.456 35.568C37.456 35.856 37.424 36.048 37.36 36.144C35.76 35.984 34.384 35.904 33.232 35.904ZM43.4897 31.488C43.4897 31.328 43.6497 31.248 43.9697 31.248C44.2897 31.248 44.5137 31.36 44.6417 31.584C44.8657 32.832 45.3457 33.744 46.0817 34.32C46.6257 34.768 47.2337 34.992 47.9057 34.992C48.5777 34.992 49.0737 34.816 49.3937 34.464C49.7137 34.112 49.8737 33.728 49.8737 33.312C49.8737 32.896 49.7617 32.56 49.5377 32.304C49.3457 32.016 49.0897 31.776 48.7697 31.584C48.4817 31.392 48.1457 31.2 47.7617 31.008C46.3537 30.368 45.1697 29.6 44.2097 28.704C43.5697 28.096 43.2497 27.328 43.2497 26.4C43.2497 25.44 43.4417 24.688 43.8257 24.144C44.2097 23.6 44.6897 23.152 45.2657 22.8C46.3537 22.128 47.6497 21.792 49.1537 21.792C49.8897 21.792 50.5297 21.872 51.0737 22.032C51.6177 22.16 52.1617 22.288 52.7057 22.416C52.8977 23.216 53.0577 24.032 53.1857 24.864C53.3137 25.696 53.3777 26.192 53.3777 26.352C53.3777 26.48 53.2337 26.544 52.9457 26.544C52.6577 26.544 52.4177 26.448 52.2257 26.256C51.9697 25.328 51.6817 24.656 51.3617 24.24C50.6897 23.472 49.8577 23.088 48.8657 23.088C48.3217 23.088 47.8737 23.232 47.5217 23.52C47.2017 23.808 47.0417 24.192 47.0417 24.672C47.0417 25.152 47.1377 25.536 47.3297 25.824C47.5537 26.112 47.8097 26.368 48.0977 26.592C48.4177 26.784 48.7697 26.96 49.1537 27.12C49.5377 27.28 49.9217 27.456 50.3057 27.648C50.6897 27.808 51.0897 28 51.5057 28.224C51.9217 28.448 52.2897 28.72 52.6097 29.04C53.3457 29.776 53.7137 30.64 53.7137 31.632C53.7137 32.592 53.5377 33.344 53.1857 33.888C52.8337 34.432 52.3697 34.88 51.7937 35.232C50.7057 35.904 49.2657 36.24 47.4737 36.24C46.7377 36.24 46.0337 36.16 45.3617 36C44.6897 35.808 44.1457 35.664 43.7297 35.568C43.6657 35.12 43.6177 34.544 43.5857 33.84C43.5537 33.104 43.5217 32.56 43.4897 32.208C43.4897 31.824 43.4897 31.584 43.4897 31.488ZM61.7727 23.136C60.3327 23.136 59.5327 24.32 59.3727 26.688C59.3087 27.328 59.2767 27.968 59.2767 28.608C59.2767 29.248 59.3247 29.952 59.4207 30.72C59.5487 31.456 59.7567 32.128 60.0447 32.736C60.6527 34.176 61.4687 34.896 62.4927 34.896C63.9967 34.896 64.8447 33.728 65.0367 31.392C65.0687 30.784 65.0847 30.16 65.0847 29.52C65.0847 28.88 65.0207 28.176 64.8927 27.408C64.7647 26.64 64.5567 25.952 64.2687 25.344C63.6607 23.872 62.8287 23.136 61.7727 23.136ZM62.1567 21.84C63.2447 21.84 64.2367 22.016 65.1327 22.368C66.0607 22.72 66.8607 23.216 67.5327 23.856C68.9087 25.2 69.5967 26.88 69.5967 28.896C69.5967 30.88 68.8767 32.608 67.4367 34.08C66.0607 35.52 64.3167 36.24 62.2047 36.24C59.9967 36.24 58.2047 35.552 56.8287 34.176C55.4527 32.8 54.7647 31.12 54.7647 29.136C54.7647 27.184 55.4687 25.472 56.8767 24C58.2847 22.56 60.0447 21.84 62.1567 21.84ZM78.6362 23.568C80.7162 23.408 82.7642 22.848 84.7802 21.888C84.9082 21.92 85.0362 22 85.1642 22.128C85.2922 22.256 85.3562 22.352 85.3562 22.416C85.2922 22.576 85.2122 23.008 85.1162 23.712C85.0202 24.384 84.9722 24.944 84.9722 25.392V32.592C84.9722 32.848 84.9722 33.072 84.9722 33.264C85.0042 33.456 85.1002 33.632 85.2602 33.792C85.4522 33.984 85.9322 34.08 86.7002 34.08C86.7642 34.208 86.7962 34.384 86.7962 34.608C86.7962 34.8 86.7322 34.976 86.6042 35.136C85.9642 35.168 84.9242 35.36 83.4842 35.712C82.0442 36.064 81.2762 36.24 81.1802 36.24C80.9882 36.24 80.8922 35.984 80.8922 35.472V34.944C80.8922 34.816 80.8602 34.768 80.7962 34.8C79.3562 35.696 77.8682 36.144 76.3322 36.144C74.2522 36.144 72.9562 34.976 72.4442 32.64C72.3162 31.936 72.2522 31.216 72.2522 30.48V27.264C72.2522 27.008 72.2202 26.624 72.1562 26.112C72.0922 25.6 72.0282 25.28 71.9642 25.152C71.8042 24.832 71.2602 24.64 70.3322 24.576C70.1402 24.544 70.0122 24.528 69.9482 24.528C69.9162 24.496 69.9002 24.336 69.9002 24.048C69.9002 23.728 69.9322 23.568 69.9962 23.568C71.2122 23.472 72.3962 23.248 73.5482 22.896C74.7002 22.512 75.5802 22.176 76.1882 21.888C76.3162 21.92 76.4282 22 76.5242 22.128C76.6522 22.256 76.7162 22.352 76.7162 22.416C76.6522 22.544 76.5882 22.816 76.5242 23.232C76.4602 23.648 76.4122 24 76.3802 24.288C76.3802 24.576 76.3802 24.944 76.3802 25.392V29.04C76.3802 30.736 76.5402 32.032 76.8602 32.928C77.1802 33.792 77.8362 34.224 78.8282 34.224C79.2762 34.224 79.7242 34.096 80.1722 33.84C80.6522 33.584 80.8922 33.328 80.8922 33.072V27.264C80.8922 27.008 80.8602 26.624 80.7962 26.112C80.7322 25.6 80.6682 25.28 80.6042 25.152C80.4122 24.736 79.7402 24.528 78.5882 24.528C78.5242 24.496 78.4922 24.336 78.4922 24.048C78.4922 23.728 78.5402 23.568 78.6362 23.568ZM91.3453 35.904C90.0333 35.904 88.5773 35.984 86.9773 36.144C86.9133 36.048 86.8813 35.856 86.8813 35.568C86.8813 35.28 86.9133 35.072 86.9773 34.944C87.6493 34.944 88.1453 34.88 88.4653 34.752C88.7853 34.592 88.9773 34.464 89.0413 34.368C89.2013 33.984 89.2813 32.992 89.2813 31.392V27.264C89.2813 27.008 89.2493 26.624 89.1853 26.112C89.1213 25.6 89.0573 25.28 88.9933 25.152C88.7693 24.736 88.0973 24.528 86.9773 24.528C86.9133 24.496 86.8813 24.336 86.8813 24.048C86.9133 23.728 86.9613 23.568 87.0253 23.568C88.2413 23.472 89.4253 23.248 90.5773 22.896C91.7293 22.512 92.6093 22.176 93.2173 21.888C93.3133 21.888 93.4253 21.968 93.5533 22.128C93.6813 22.256 93.7293 22.352 93.6973 22.416C93.6973 22.48 93.6813 22.608 93.6493 22.8C93.6493 22.96 93.6173 23.168 93.5533 23.424C93.3933 24.064 93.3613 24.384 93.4573 24.384C93.4893 24.384 93.5213 24.368 93.5533 24.336C93.5853 24.304 93.6333 24.272 93.6973 24.24C94.1453 23.728 94.6893 23.28 95.3293 22.896C96.4493 22.224 97.4093 21.888 98.2093 21.888C99.0413 21.888 99.7293 22.048 100.273 22.368C100.849 22.656 101.297 23.104 101.617 23.712C102.161 24.8 102.433 26.672 102.433 29.328V31.392C102.433 32.992 102.481 33.92 102.577 34.176C102.673 34.4 102.801 34.56 102.961 34.656C103.153 34.72 103.361 34.784 103.585 34.848C103.969 34.912 104.337 34.944 104.689 34.944C104.785 35.072 104.817 35.28 104.785 35.568C104.785 35.856 104.753 36.048 104.689 36.144C103.185 35.984 101.745 35.904 100.369 35.904C99.3133 35.904 97.9853 35.984 96.3853 36.144C96.3213 36.048 96.2893 35.856 96.2893 35.568C96.2893 35.28 96.3213 35.072 96.3853 34.944C96.6093 34.944 96.9293 34.912 97.3453 34.848C97.7613 34.752 98.0173 34.56 98.1133 34.272C98.2413 33.92 98.3053 32.96 98.3053 31.392V28.896C98.3053 25.92 97.6013 24.432 96.1933 24.432C95.5853 24.432 95.0573 24.576 94.6093 24.864C93.8093 25.44 93.4093 25.888 93.4093 26.208V31.392C93.4093 32.992 93.4573 33.92 93.5533 34.176C93.6493 34.4 93.7773 34.56 93.9373 34.656C94.0973 34.72 94.2733 34.784 94.4653 34.848C94.7853 34.912 95.1213 34.944 95.4733 34.944C95.5373 35.072 95.5693 35.28 95.5693 35.568C95.5693 35.856 95.5373 36.048 95.4733 36.144C93.8733 35.984 92.4973 35.904 91.3453 35.904ZM114.664 35.472V34.944C114.664 34.816 114.616 34.784 114.52 34.848C114.424 34.912 114.248 35.024 113.992 35.184C113.736 35.344 113.432 35.504 113.08 35.664C111.448 36.4 109.928 36.416 108.52 35.712C107.08 35.04 106.056 33.888 105.448 32.256C105.128 31.456 104.968 30.496 104.968 29.376C104.968 28.224 105.256 27.168 105.832 26.208C106.44 25.216 107.176 24.4 108.04 23.76C108.904 23.12 109.8 22.656 110.728 22.368C111.688 22.048 112.52 21.888 113.224 21.888C113.928 21.888 114.36 21.904 114.52 21.936C114.616 21.936 114.664 21.696 114.664 21.216V18.336C114.664 17.664 114.6 17.152 114.472 16.8C114.376 16.608 114.072 16.464 113.56 16.368C113.08 16.272 112.744 16.224 112.552 16.224C112.488 16.224 112.456 16.08 112.456 15.792C112.456 15.472 112.488 15.28 112.552 15.216C114.344 15.056 115.8 14.816 116.92 14.496C118.04 14.144 118.632 13.984 118.696 14.016C118.792 14.016 118.888 14.08 118.984 14.208C119.08 14.336 119.128 14.448 119.128 14.544C118.904 15.44 118.792 16.496 118.792 17.712V32.592C118.792 32.848 118.792 33.072 118.792 33.264C118.824 33.456 118.92 33.632 119.08 33.792C119.272 33.984 119.752 34.08 120.52 34.08C120.584 34.208 120.616 34.384 120.616 34.608C120.616 34.8 120.552 34.976 120.424 35.136C119.848 35.168 119.032 35.312 117.976 35.568C116.088 36.016 115.064 36.24 114.904 36.24C114.744 36.24 114.664 35.984 114.664 35.472ZM112.648 34.224C113.096 34.224 113.544 34.08 113.992 33.792C114.44 33.504 114.664 33.264 114.664 33.072V24.912C114.664 24.624 114.424 24.32 113.944 24C113.464 23.648 112.92 23.472 112.312 23.472C111.736 23.472 111.272 23.616 110.92 23.904C110.568 24.16 110.28 24.512 110.056 24.96C109.672 25.824 109.48 27.04 109.48 28.608C109.48 30.144 109.752 31.472 110.296 32.592C110.872 33.68 111.656 34.224 112.648 34.224Z" fill="#1C1E52"/>
<path d="M12 38C17.5228 38 22 33.5228 22 28C22 22.4772 17.5228 18 12 18C6.47715 18 2 22.4772 2 28C2 33.5228 6.47715 38 12 38Z" stroke="#1C1E52" stroke-width="4" stroke-linecap="round" stroke-linejoin="round"/>
<path d="M12 31C13.6569 31 15 29.6569 15 28C15 26.3431 13.6569 25 12 25C10.3431 25 9 26.3431 9 28C9 29.6569 10.3431 31 12 31Z" stroke="#1C1E52" stroke-width="4" stroke-linecap="round" stroke-linejoin="round"/>
</svg>
